<mxfile host="65bd71144e">
    <diagram id="sEoKmMWLerM-oJu5pEwn" name="Page-1">
        <mxGraphModel dx="1280" dy="1558" grid="1" gridSize="10" guides="1" tooltips="1" connect="1" arrows="1" fold="1" page="1" pageScale="1" pageWidth="850" pageHeight="1100" math="0" shadow="0">
            <root>
                <mxCell id="0"/>
                <mxCell id="1" parent="0"/>
                <mxCell id="2" value="" style="rounded=1;whiteSpace=wrap;html=1;" vertex="1" parent="1">
                    <mxGeometry x="60" y="150" width="60" height="60" as="geometry"/>
                </mxCell>
                <mxCell id="3" value="" style="rounded=1;whiteSpace=wrap;html=1;" vertex="1" parent="1">
                    <mxGeometry x="120" y="150" width="60" height="60" as="geometry"/>
                </mxCell>
                <mxCell id="4" value="" style="rounded=1;whiteSpace=wrap;html=1;" vertex="1" parent="1">
                    <mxGeometry x="180" y="150" width="60" height="60" as="geometry"/>
                </mxCell>
                <mxCell id="5" value="" style="rounded=1;whiteSpace=wrap;html=1;" vertex="1" parent="1">
                    <mxGeometry x="240" y="150" width="60" height="60" as="geometry"/>
                </mxCell>
                <mxCell id="6" value="" style="rounded=1;whiteSpace=wrap;html=1;" vertex="1" parent="1">
                    <mxGeometry x="300" y="150" width="60" height="60" as="geometry"/>
                </mxCell>
                <mxCell id="7" value="" style="rounded=1;whiteSpace=wrap;html=1;" vertex="1" parent="1">
                    <mxGeometry x="360" y="150" width="60" height="60" as="geometry"/>
                </mxCell>
                <mxCell id="8" value="" style="rounded=1;whiteSpace=wrap;html=1;" vertex="1" parent="1">
                    <mxGeometry x="420" y="150" width="60" height="60" as="geometry"/>
                </mxCell>
                <mxCell id="9" value="" style="rounded=1;whiteSpace=wrap;html=1;" vertex="1" parent="1">
                    <mxGeometry x="480" y="150" width="60" height="60" as="geometry"/>
                </mxCell>
                <mxCell id="10" value="a1" style="ellipse;whiteSpace=wrap;html=1;aspect=fixed;fillColor=#33FFFF;" vertex="1" parent="1">
                    <mxGeometry x="65" y="155" width="50" height="50" as="geometry"/>
                </mxCell>
                <mxCell id="11" value="a2" style="ellipse;whiteSpace=wrap;html=1;aspect=fixed;fillColor=#33FFFF;" vertex="1" parent="1">
                    <mxGeometry x="125" y="155" width="50" height="50" as="geometry"/>
                </mxCell>
                <mxCell id="12" value="a3" style="ellipse;whiteSpace=wrap;html=1;aspect=fixed;fillColor=#33FFFF;" vertex="1" parent="1">
                    <mxGeometry x="185" y="155" width="50" height="50" as="geometry"/>
                </mxCell>
                <mxCell id="13" value="a4" style="ellipse;whiteSpace=wrap;html=1;aspect=fixed;fillColor=#33FFFF;" vertex="1" parent="1">
                    <mxGeometry x="245" y="155" width="50" height="50" as="geometry"/>
                </mxCell>
                <mxCell id="14" value="..." style="ellipse;whiteSpace=wrap;html=1;aspect=fixed;fillColor=#33FFFF;" vertex="1" parent="1">
                    <mxGeometry x="305" y="155" width="50" height="50" as="geometry"/>
                </mxCell>
                <mxCell id="15" value="ai" style="ellipse;whiteSpace=wrap;html=1;aspect=fixed;fillColor=#33FFFF;" vertex="1" parent="1">
                    <mxGeometry x="365" y="155" width="50" height="50" as="geometry"/>
                </mxCell>
                <mxCell id="16" value="..." style="ellipse;whiteSpace=wrap;html=1;aspect=fixed;fillColor=#33FFFF;" vertex="1" parent="1">
                    <mxGeometry x="425" y="155" width="50" height="50" as="geometry"/>
                </mxCell>
                <mxCell id="17" value="an" style="ellipse;whiteSpace=wrap;html=1;aspect=fixed;fillColor=#33FFFF;" vertex="1" parent="1">
                    <mxGeometry x="485" y="155" width="50" height="50" as="geometry"/>
                </mxCell>
            </root>
        </mxGraphModel>
    </diagram>
</mxfile>